<?xml version="1.0" encoding="UTF-8"?>
<svg xmlns="http://www.w3.org/2000/svg" xmlns:xlink="http://www.w3.org/1999/xlink" width="32pt" height="32pt" viewBox="0 0 32 32" version="1.1">
<g id="surface1">
<path style=" stroke:none;fill-rule:nonzero;fill:rgb(0%,0%,0%);fill-opacity:1;" d="M 9.292969 9.292969 C 9.480469 9.105469 9.734375 9 10 9 C 10.265625 9 10.519531 9.105469 10.707031 9.292969 L 16 14.585938 L 21.292969 9.292969 C 21.683594 8.902344 22.316406 8.902344 22.707031 9.292969 C 23.097656 9.683594 23.097656 10.316406 22.707031 10.707031 L 17.414062 16 L 22.707031 21.292969 C 23.097656 21.683594 23.097656 22.316406 22.707031 22.707031 C 22.316406 23.097656 21.683594 23.097656 21.292969 22.707031 L 16 17.414062 L 10.707031 22.707031 C 10.316406 23.097656 9.683594 23.097656 9.292969 22.707031 C 8.902344 22.316406 8.902344 21.683594 9.292969 21.292969 L 14.585938 16 L 9.292969 10.707031 C 9.105469 10.519531 9 10.265625 9 10 C 9 9.734375 9.105469 9.480469 9.292969 9.292969 Z M 9.292969 9.292969 "/>
</g>
</svg>
