<svg xmlns="http://www.w3.org/2000/svg" width="280.94" height="422.253">
    <g data-name="Group 609">
        <path data-name="Path 53" d="M-2231.443-1769.413h-110.905a6.71 6.71 0 0 1-6.476-8.47l104.574-384.853a6.71 6.71 0 0 1 6.476-4.951h110.905a6.71 6.71 0 0 1 6.475 8.47l-104.574 384.853a6.71 6.71 0 0 1-6.475 4.951z" transform="translate(2400.068 2168.687)" style="stroke:#ffec00;fill:none;stroke-miterlimit:10;stroke-width:2px"/>
        <path data-name="Path 54" d="M-2467.681-1665.518h-110.906a6.711 6.711 0 0 1-6.475-8.47l104.574-384.853a6.711 6.711 0 0 1 6.476-4.951h110.905a6.71 6.71 0 0 1 6.475 8.47l-104.574 384.853a6.71 6.71 0 0 1-6.475 4.951z" transform="translate(2586.328 2086.771)" style="stroke:#5eefe1;fill:none;stroke-miterlimit:10;stroke-width:2px"/>
    </g>
</svg>
