<svg xmlns="http://www.w3.org/2000/svg" id="LogoBC" width="327" height="67.072" viewBox="0 0 327 67.072">
    <defs>
        <style>
            .cls-1{fill:#fff}.cls-2{fill:#fdeb07}
        </style>
    </defs>
    <g id="Group_29" transform="translate(65.06 15.76)">
        <g id="Group_28" transform="translate(0 0)">
            <g id="Group_27">
                <g id="Group_26">
                    <g id="Group_3" transform="translate(0 1.9)">
                        <g id="Group_2">
                            <path id="Path_6" d="M168.231 403.868H156.62V372.11h11.8c5.5 0 10.714 1.656 10.714 8.055a8.168 8.168 0 0 1-4.506 7.112 7.821 7.821 0 0 1 5.687 7.587c.001 6.728-5.83 9.004-12.084 9.004zm-.95-19.2c1.893 0 4.981 0 4.981-3.556 0-3.081-1.425-3.793-4.981-3.793H163.4v7.349zm-3.881 13.988h4.4c3.978 0 5.64-.95 5.64-4.5 0-3.318-2.843-3.793-5.449-3.793h-4.6z" class="cls-1" transform="translate(-156.62 -372.11)"/>
                        </g>
                    </g>
                    <g id="Group_5" transform="translate(28.671 9.486)">
                        <g id="Group_4">
                            <path id="Path_7" d="M214.541 389.059a18.607 18.607 0 0 0-7.824.95v17.779h-6.637v-23.7h6.637v1.662h.191a10.42 10.42 0 0 1 7.633-2.038z" class="cls-1" transform="translate(-200.08 -383.61)"/>
                        </g>
                    </g>
                    <g id="Group_7" transform="translate(46.449)">
                        <g id="Group_6">
                            <path id="Path_8" d="M230.823 369.23a3.793 3.793 0 1 1-3.793 3.793 3.807 3.807 0 0 1 3.793-3.793zm3.318 33.658h-6.637v-23.7h6.637z" class="cls-1" transform="translate(-227.03 -369.23)"/>
                        </g>
                    </g>
                    <g id="Group_9" transform="translate(58.298 4.796)">
                        <g id="Group_8">
                            <path id="Path_9" d="M254.14 399.108a2.253 2.253 0 0 0-.145 1.992h7.587c6.782 0 8.2 4.882 7.587 8.438-.759 4.407-5.5 7.679-13.273 7.679-5.594 0-10.9-2.368-10.9-6.92 0-1.564.521-4.123 4.361-6.491a3.308 3.308 0 0 1-1.425-3.226 3.44 3.44 0 0 1 2.085-2.467c-3.127-1.28-4.836-3.978-4.836-7.679 0-6.4 3.886-9.242 11.188-9.242a13.167 13.167 0 0 1 4.928.759l4.222-5.449 4.031 4.506-4.6 3.747a7.823 7.823 0 0 1 1.847 5.165c0 6.828-4.743 9.289-11.281 9.289-.516-.009-.855-.055-1.376-.101zm-2.751 10.047c0 1.187.712 3.556 4.981 3.556 3.081 0 6.4-1.234 6.4-4.031a2.565 2.565 0 0 0-2.7-2.843h-7.4a5.158 5.158 0 0 0-1.281 3.318zm4.413-14.223c3.648 0 4.6-1.662 4.6-4.644 0-2.467-.62-4.123-4.077-4.123-3.556 0-4.506 1.425-4.506 4.552-.001 2.322.52 4.215 3.981 4.215z" class="cls-1" transform="translate(-244.99 -376.5)"/>
                        </g>
                    </g>
                    <g id="Group_11" transform="translate(86.408)">
                        <g id="Group_10">
                            <path id="Path_10" d="M294.237 402.888H287.6v-33.183l6.637-.475v11.611h.238a12.294 12.294 0 0 1 7.112-2.131c4.031 0 7.349 2.177 7.349 7.065v17.113H302.3v-15.642c0-2.843-1.893-3.318-3.318-3.318a14.046 14.046 0 0 0-4.743.95z" class="cls-1" transform="translate(-287.6 -369.23)"/>
                        </g>
                    </g>
                    <g id="Group_13" transform="translate(111.529 2.375)">
                        <g id="Group_12">
                            <path id="Path_11" d="M335.635 372.83v7.587h6.637l-.475 4.743h-6.162v12.04a2.232 2.232 0 0 0 2.467 2.184 22.656 22.656 0 0 0 4.268-.475l.613 4.644a26.321 26.321 0 0 1-6.544 1.042c-4.123 0-7.441-1.755-7.441-6.491V385.16h-3.318v-4.743H329v-7.112z" class="cls-1" transform="translate(-325.68 -372.83)"/>
                        </g>
                    </g>
                    <g id="Group_15" transform="translate(131.914 1.425)">
                        <g id="Group_14">
                            <path id="Path_12" d="M377.961 375.9a18.6 18.6 0 0 0-7.587-1.425c-8.055 0-10.239 5.924-10.239 13.511 0 7.013 2.131 13.036 10.192 13.036a23.365 23.365 0 0 0 8.292-2.131l.95 2.606a21.49 21.49 0 0 1-9.717 2.606c-9.909 0-13.273-7.441-13.273-16.116 0-9.1 2.843-16.591 13.557-16.591a22.686 22.686 0 0 1 9 1.662z" class="cls-1" transform="translate(-356.58 -371.39)"/>
                        </g>
                    </g>
                    <g id="Group_17" transform="translate(157.82 9.486)">
                        <g id="Group_16">
                            <path id="Path_13" d="M406.755 383.61c6.637 0 9.955 3.556 9.955 11.848s-2.843 12.8-10.9 12.8c-6.637 0-9.955-3.556-9.955-11.848s2.845-12.8 10.9-12.8zm-.712 22.041c5.687 0 7.349-4.031 7.349-10.192 0-5.449-1.187-9.242-6.874-9.242s-7.349 4.031-7.349 10.192c.006 5.448 1.187 9.242 6.873 9.242z" class="cls-1" transform="translate(-395.85 -383.61)"/>
                        </g>
                    </g>
                    <g id="Group_19" transform="translate(181.84 0.007)">
                        <g id="Group_18">
                            <path id="Path_14" d="M448.852 380.046v-10.331l3.318-.475v33.66h-3.318v-1.662h-.237a11.9 11.9 0 0 1-7.112 2.131c-6.874 0-9.242-5.687-9.242-11.848 0-7.112 2.843-12.8 10.384-12.8a13.558 13.558 0 0 1 6.069 1.425zm-6.162 20.477a19.7 19.7 0 0 0 6.162-.95v-17.3a24.833 24.833 0 0 0-5.687-.712c-5.924 0-7.349 4.5-7.349 9.717 0 4.264.712 9.245 6.874 9.245z" class="cls-1" transform="translate(-432.26 -369.24)"/>
                        </g>
                    </g>
                    <g id="Group_21" transform="translate(206.559 9.486)">
                        <g id="Group_20">
                            <path id="Path_15" d="M488.221 406.832a18.171 18.171 0 0 1-7.587 1.425c-7.112 0-10.9-2.843-10.9-12.323 0-8.055 3.556-12.323 10.192-12.323s9.48 3.839 9.48 10.239a12.108 12.108 0 0 1-.237 2.322h-16.121c0 7.349 2.889 9.242 7.587 9.242a21.053 21.053 0 0 0 6.874-1.187c-.046-.001.712 2.605.712 2.605zm-15.074-13.5h12.943c-.237-4.453-2.131-6.874-6.162-6.874-3.555-.005-6.161 1.889-6.781 6.869z" class="cls-1" transform="translate(-469.73 -383.61)"/>
                        </g>
                    </g>
                    <g id="Group_23" transform="translate(231.759 9.48)">
                        <g id="Group_22">
                            <path id="Path_16" d="M519.072 386.918a21.072 21.072 0 0 0-7.824 1.187v19.672h-3.318v-23.7h3.318v1.893h.237a13.574 13.574 0 0 1 7.587-2.368z" class="cls-1" transform="translate(-507.93 -383.6)"/>
                        </g>
                    </g>
                    <g id="Group_25" transform="translate(245.586 9.48)">
                        <g id="Group_24">
                            <path id="Path_17" d="M529.6 404.222a22.637 22.637 0 0 0 6.4 1.187c3.318 0 5.924-1.187 5.924-4.031s-2.843-3.694-6.162-4.506c-3.747-.9-6.874-2.368-6.874-6.637 0-4.737 3.556-6.637 9.005-6.637a20.171 20.171 0 0 1 6.161 1.187l-.712 2.843a17.546 17.546 0 0 0-5.924-1.187c-3.318 0-5.212 1.187-5.212 3.556 0 2.843 2.038 3.226 5.924 4.268 3.694 1 7.111 2.131 7.111 6.874 0 4.974-4.215 7.112-9.48 7.112a28.327 28.327 0 0 1-6.874-1.187z" class="cls-1" transform="translate(-528.89 -383.6)"/>
                        </g>
                    </g>
                </g>
            </g>
        </g>
    </g>
    <g id="Group_31">
        <g id="XMLID_10_">
            <g id="Group_30">
                <path id="Path_18" d="M98.425 398.63v8.992a12.03 12.03 0 0 1-4.275 0v-8.992z" class="cls-2" transform="translate(-70.302 -363.475)"/>
                <path id="Path_19" d="M105.084 391.7a1.214 1.214 0 1 1 0 2.428h-1.214v-1.214a1.219 1.219 0 0 1 1.214-1.214z" class="cls-2" transform="translate(-73.61 -361.116)"/>
                <path id="Path_20" d="M89.658 392.914v1.214h-1.214a1.214 1.214 0 1 1 1.214-1.214z" class="cls-2" transform="translate(-67.947 -361.116)"/>
                <path id="Path_21" d="M103.235 388.009a12.1 12.1 0 0 1-7.8 11.3v-8.4h1.214a3.355 3.355 0 1 0-3.351-3.358v1.214h-4.28v-1.214a3.358 3.358 0 1 0-3.358 3.358h1.214v8.4a12.081 12.081 0 1 1 16.361-11.3z" class="cls-2" transform="translate(-65.17 -355.75)"/>
                <path id="Path_22" d="M109.978 357.413v28.9c0 14.3-24.481 25.425-25.524 25.893l-.468.2-.462-.2C82.481 411.739 58 400.616 58 386.314v-28.9a4.336 4.336 0 0 1 4.334-4.328h.884v-.957a4.24 4.24 0 0 1 4.235-4.235h13.458a1.287 1.287 0 0 0 .917-.383l2.164-2.17 2.17 2.17a1.314 1.314 0 0 0 .924.383h13.451a4.236 4.236 0 0 1 4.235 4.235v.957h.884a4.333 4.333 0 0 1 4.322 4.327zm-2.276 28.9v-28.9a2.061 2.061 0 0 0-2.058-2.058h-.884v30.181c0 11.452-19.481 20.3-20.306 20.675l-.468.211-.462-.211c-.825-.376-20.306-9.229-20.306-20.675v-30.182h-.884a2.057 2.057 0 0 0-2.058 2.058v28.9c0 11.835 20.358 22.008 23.716 23.6 3.351-1.59 23.708-11.763 23.708-23.598zm-5.218-.779v-30.18h-37v30.181c0 9.1 15.589 16.987 18.5 18.386 2.911-1.392 18.5-9.288 18.5-18.385zm0-32.451v-.957a1.951 1.951 0 0 0-1.959-1.959H87.073a3.566 3.566 0 0 1-2.52-1.049l-.574-.561-.554.561a3.565 3.565 0 0 1-2.527 1.049H67.44a1.955 1.955 0 0 0-1.959 1.959v.957z" class="cls-2" transform="translate(-58 -345.34)"/>
            </g>
        </g>
    </g>
</svg>
